<?xml version="1.0" encoding="UTF-8"?>
<!DOCTYPE svg PUBLIC "-//W3C//DTD SVG 1.1//EN" "http://www.w3.org/Graphics/SVG/1.1/DTD/svg11.dtd">
<!-- Creator: Corel DESIGNER -->
<svg xmlns="http://www.w3.org/2000/svg" xml:space="preserve" width="600px" height="600px" style="shape-rendering:geometricPrecision; text-rendering:geometricPrecision; image-rendering:optimizeQuality; fill-rule:evenodd; clip-rule:evenodd"
viewBox="0 0 600 600"
 xmlns:xlink="http://www.w3.org/1999/xlink">
 <defs>
  <style type="text/css">
   <![CDATA[
    .str0 {stroke:#A0A56D;stroke-width:2.67849;stroke-linecap:round;stroke-linejoin:round}
    .str1 {stroke:white;stroke-width:5.35723;stroke-linecap:round;stroke-linejoin:round}
    .fil4 {fill:none}
    .fil2 {fill:#C9CBCF}
    .fil3 {fill:#DDE200}
    .fil1 {fill:#E5E6E9}
    .fil0 {fill:#F6F7F8}
    .fil5 {fill:#1F1A17;fill-rule:nonzero}
    .fil6 {fill:#1F1A17;fill-opacity:0.388235}
   ]]>
  </style>
 </defs>
 <g id="Layer_x0020_1">
  <metadata id="CorelCorpID_0Corel-Layer"/>
  <polygon class="fil0" points="600.001,600.002 -0.000253093,-0.000253093 -0.000253093,600.001 -0.000253093,600.002 "/>
  <g id="_33945176">
   <polygon id="_34230104" class="fil1" points="300,300 -0.000253093,-0.000253093 300,-0.000253093 "/>
   <polygon id="_34587848" class="fil1" points="600,600 300,300 600,300 "/>
  </g>
  <polygon class="fil2" points="600,-0.000253093 300,300 300,-0.000253093 "/>
  <polygon class="fil3" points="300,300 600,-0.000253093 600,300 "/>
  <path class="fil4 str0" d="M300 581.445l0 8.40118m0 8.40144l0 8.40118m0 -58.809l0 8.40118m0 8.40144l0 8.40118m0 -58.809l0 8.40118m0 8.40144l0 8.40118m0 -58.809l0 8.40118m0 8.40144l0 8.40118m0 -58.809l0 8.40118m0 8.40144l0 8.40118m0 -58.809l0 8.40118m0 8.40144l0 8.40118m0 -58.809l0 8.40118m0 8.40144l0 8.40118m0 -58.809l0 8.40118m0 8.40144l0 8.40118m0 -58.809l0 8.40118m0 8.40144l0 8.40118m0 -58.809l0 8.40118m0 8.40144l0 8.40118m0 -58.809l0 8.40118m0 8.40144l0 8.40118m0 -58.809l0 8.40118m0 8.40144l0 8.40118m0 -58.809l0 8.40118m0 8.40144l0 8.40118m0 -58.809l0 8.40118m0 8.40144l0 8.40118m0 -58.809l0 8.40118m0 8.40144l0 8.40118m0 -58.809l0 8.40118m0 8.40144l0 8.40118m0 -58.809l0 8.40118m0 8.40144l0 8.40118m0 -58.809l0 8.40118m0 -25.2038l0 8.40144m0 25.2038l0 8.40118"/>
  <path class="fil4 str0" d="M18.5563 300.001l-8.40118 0m-8.40144 0l-8.40118 0m58.809 0l-8.40118 0m-8.40144 0l-8.40118 0m58.809 0l-8.40118 0m-8.40144 0l-8.40118 0m58.809 0l-8.40118 0m-8.40144 0l-8.40118 0m58.809 0l-8.40118 0m-8.40144 0l-8.40118 0m58.809 0l-8.40118 0m-8.40144 0l-8.40118 0m58.809 0l-8.40118 0m-8.40144 0l-8.40118 0m58.809 0l-8.40118 0m-8.40144 0l-8.40118 0m58.809 0l-8.40118 0m-8.40144 0l-8.40118 0m58.809 0l-8.40118 0m-8.40144 0l-8.40118 0m58.809 0l-8.40118 0m-8.40144 0l-8.40118 0m58.809 0l-8.40118 0m-8.40144 0l-8.40118 0m58.809 0l-8.40118 0m-8.40144 0l-8.40118 0m58.809 0l-8.40118 0m-8.40144 0l-8.40118 0m58.809 0l-8.40118 0m-8.40144 0l-8.40118 0m58.809 0l-8.40118 0m-8.40144 0l-8.40118 0m58.809 0l-8.40118 0m-8.40144 0l-8.40118 0m58.809 0l-8.40118 0m25.2038 0l-8.40144 0m-25.2038 0l-8.40118 0"/>
  <path class="fil4 str0" d="M11.8797 588.119l5.9401 -5.94061m-17.8216 17.8223l5.94112 -5.94086m29.7025 -29.7036l5.94086 -5.94036m-17.8213 17.8216l5.93985 -5.94036m29.7036 -29.7036l5.94086 -5.94036m-17.8223 17.8218l5.94061 -5.94061m17.8221 -17.8223l5.94061 -5.9401m510.894 -510.891l-5.94061 5.94061m17.8218 -17.8218l-5.94061 5.94061m-29.7033 29.7033l-5.94036 5.94036m17.8216 -17.8216l-5.94036 5.94036m-29.7033 29.7033l-5.94061 5.94061m17.8218 -17.8218l-5.94061 5.94061m-17.8218 17.8218l-5.94061 5.94061m-421.784 421.784l-5.94061 5.94061m-5.94086 5.94036l-5.94061 5.94061m41.5845 -41.584l-5.94061 5.94061m-5.94086 5.94036l-5.9401 5.94061m41.584 -41.584l-5.94036 5.94036m-5.94061 5.94061l-5.94061 5.94061m41.584 -41.5843l-5.94036 5.94061m-5.94061 5.94061l-5.94086 5.94036m41.5845 -41.584l-5.94061 5.94061m-5.94061 5.94061l-5.94061 5.94061m41.5845 -41.5838l-5.94086 5.9401m-5.94061 5.94061l-5.9401 5.94061m41.5838 -41.5843l-5.94036 5.94036m-5.94086 5.94086l-5.94061 5.94036m41.5845 -41.5843l-5.94061 5.94061m-5.94086 5.94061l-5.94061 5.94061m41.5845 -41.5843l-5.94061 5.94061m-5.94086 5.94061l-5.94061 5.94036m41.5845 -41.584l-5.94061 5.94061m-5.94086 5.94086l-5.9401 5.9401m41.584 -41.584l-5.94061 5.94061m-5.94036 5.94086l-5.94061 5.94036m41.584 -41.5843l-5.94036 5.94036m-5.94061 5.94086l-5.94061 5.94061m41.5843 -41.5845l-5.94086 5.9401m-5.94036 5.94137l-5.94061 5.94036m41.5843 -41.5843l-5.94061 5.94061m-5.94112 5.94061l-5.9401 5.94061m41.5843 -41.5843l-5.94036 5.94061m-5.94086 5.94061l-5.94061 5.94061m41.5843 -41.5843l-5.94036 5.94036m-5.94061 5.94112l-5.94086 5.94036m41.5845 -41.5845l-5.94061 5.94061m-5.94086 5.94086l-5.94061 5.94061m41.5845 -41.5845l-5.94061 5.94061m17.8221 -17.8216l-5.94112 5.94061m-17.8218 17.8218l-5.9401 5.94061"/>
  <path class="fil4 str0" d="M11.8812 11.88l5.94061 5.9401m-17.8223 -17.8216l5.94086 5.94112m29.7036 29.7025l5.94036 5.94086m-17.8216 -17.8213l5.94036 5.93985m29.7036 29.7036l5.94036 5.94086m-17.8218 -17.8223l5.94061 5.94061m17.8223 17.8221l5.9401 5.94061m510.891 510.894l-5.94061 -5.94061m17.8218 17.8218l-5.94061 -5.94061m-29.7033 -29.7033l-5.94036 -5.94036m17.8216 17.8216l-5.94036 -5.94036m-29.7033 -29.7033l-5.94061 -5.94061m17.8218 17.8218l-5.94061 -5.94061m-17.8218 -17.8218l-5.94061 -5.94061m-421.784 -421.784l-5.94061 -5.94061m-5.94036 -5.94086l-5.94061 -5.94061m41.584 41.5845l-5.94061 -5.94061m-5.94036 -5.94086l-5.94061 -5.9401m41.584 41.584l-5.94036 -5.94036m-5.94061 -5.94061l-5.94061 -5.94061m41.5843 41.584l-5.94061 -5.94036m-5.94061 -5.94061l-5.94036 -5.94086m41.584 41.5845l-5.94061 -5.94061m-5.94061 -5.94061l-5.94061 -5.94061m41.5838 41.5845l-5.9401 -5.94086m-5.94061 -5.94061l-5.94061 -5.9401m41.5843 41.5838l-5.94036 -5.94036m-5.94086 -5.94086l-5.94036 -5.94061m41.5843 41.5845l-5.94061 -5.94061m-5.94061 -5.94086l-5.94061 -5.94061m41.5843 41.5845l-5.94061 -5.94061m-5.94061 -5.94086l-5.94036 -5.94061m41.584 41.5845l-5.94061 -5.94061m-5.94086 -5.94086l-5.9401 -5.9401m41.584 41.584l-5.94061 -5.94061m-5.94086 -5.94036l-5.94036 -5.94061m41.5843 41.584l-5.94036 -5.94036m-5.94086 -5.94061l-5.94061 -5.94061m41.5845 41.5843l-5.9401 -5.94086m-5.94137 -5.94036l-5.94036 -5.94061m41.5843 41.5843l-5.94061 -5.94061m-5.94061 -5.94112l-5.94061 -5.9401m41.5843 41.5843l-5.94061 -5.94036m-5.94061 -5.94086l-5.94061 -5.94061m41.5843 41.5843l-5.94036 -5.94036m-5.94112 -5.94061l-5.94036 -5.94086m41.5845 41.5845l-5.94061 -5.94061m-5.94086 -5.94086l-5.94061 -5.94061m41.5845 41.5845l-5.94061 -5.94061m17.8216 17.8221l-5.94061 -5.94112m-17.8218 -17.8218l-5.94061 -5.9401"/>
  <path class="fil5" d="M462.352 33.4686c0,-1.49148 -0.102756,-1.49148 -1.74862,-1.49148 -3.80551,3.29148 -9.51429,3.29148 -10.6456,3.29148l-0.977194 0 0 2.21128 0.977194 0c1.8,0 4.52582,-0.308521 6.58296,-0.976941l0 27 -7.14862 0 0 2.21128c2.1599,-0.102756 7.5599,-0.102756 9.9772,-0.102756 2.41704,0 7.86842,0 10.0286,0.102756l0 -2.21128 -7.04587 0 0 -30.0343z"/>
  <g id="_34737840">
   <g>
    <g>
     <path id="_33658984" class="fil6" d="M454.498 356.892c0,6.77405 -5.49339,12.2677 -12.2677,12.2677 -6.77405,0 -12.2674,-5.49365 -12.2674,-12.2677 0,-6.77405 5.49339,-12.2677 12.2674,-12.2677 6.7743,0 12.2677,5.49365 12.2677,12.2677z"/>
     <path id="_34286960" class="fil6" d="M482.944 356.892c0,6.77405 -5.49339,12.2677 -12.2674,12.2677 -6.7743,0 -12.2677,-5.49365 -12.2677,-12.2677 0,-6.77405 5.49339,-12.2677 12.2677,-12.2677 6.77405,0 12.2674,5.49365 12.2674,12.2677z"/>
     <path id="_34284216" class="fil6" d="M511.39 356.892c0,6.7743 -5.49339,12.2677 -12.2677,12.2677 -6.77405,0 -12.2674,-5.49339 -12.2674,-12.2677 0,-6.77405 5.49339,-12.2674 12.2674,-12.2674 6.7743,0 12.2677,5.49339 12.2677,12.2674z"/>
     <path id="_33679360" class="fil6" d="M539.835 385.338c0,6.77405 -5.49339,12.2677 -12.2677,12.2677 -6.77405,0 -12.2674,-5.49365 -12.2674,-12.2677 0,-6.77405 5.49339,-12.2677 12.2674,-12.2677 6.7743,0 12.2677,5.49365 12.2677,12.2677z"/>
     <path id="_32468536" class="fil6" d="M568.281 385.338c0,6.77405 -5.49339,12.2677 -12.2674,12.2677 -6.7743,0 -12.2677,-5.49365 -12.2677,-12.2677 0,-6.77405 5.49339,-12.2677 12.2677,-12.2677 6.77405,0 12.2674,5.49365 12.2674,12.2677z"/>
     <path id="_32315872" class="fil6" d="M397.606 328.446c0,6.77405 -5.49339,12.2677 -12.2674,12.2677 -6.7743,0 -12.2677,-5.49365 -12.2677,-12.2677 0,-6.77405 5.49339,-12.2677 12.2677,-12.2677 6.77405,0 12.2674,5.49365 12.2674,12.2677z"/>
     <path id="_32627216" class="fil6" d="M426.052 328.446c0,6.77405 -5.49365,12.2674 -12.2677,12.2674 -6.77405,0 -12.2677,-5.49339 -12.2677,-12.2674 0,-6.7743 5.49365,-12.2677 12.2677,-12.2677 6.77405,0 12.2677,5.49339 12.2677,12.2677z"/>
     <path id="_32606320" class="fil6" d="M369.16 328.446c0,6.77405 -5.49339,12.2677 -12.2677,12.2677 -6.77405,0 -12.2674,-5.49365 -12.2674,-12.2677 0,-6.77405 5.49339,-12.2677 12.2674,-12.2677 6.7743,0 12.2677,5.49365 12.2677,12.2677z"/>
     <path id="_32496072" class="fil6" d="M340.714 300c0,6.7743 -5.49339,12.2677 -12.2674,12.2677 -6.7743,0 -12.2677,-5.49339 -12.2677,-12.2677 0,-6.77405 5.49339,-12.2674 12.2677,-12.2674 6.77405,0 12.2674,5.49339 12.2674,12.2674z"/>
     <path id="_33420936" class="fil6" d="M312.268 300c0,6.7743 -5.49339,12.2677 -12.2677,12.2677 -6.77405,0 -12.2674,-5.49339 -12.2674,-12.2677 0,-6.77405 5.49339,-12.2674 12.2674,-12.2674 6.7743,0 12.2677,5.49339 12.2677,12.2674z"/>
    </g>
    <g>
     <path id="_33803304" class="fil6" d="M145.502 243.108c0,-6.77405 5.49339,-12.2677 12.2677,-12.2677 6.77405,0 12.2674,5.49365 12.2674,12.2677 0,6.77405 -5.49339,12.2677 -12.2674,12.2677 -6.7743,0 -12.2677,-5.49365 -12.2677,-12.2677z"/>
     <path id="_33110320" class="fil6" d="M117.056 243.108c0,-6.77405 5.49339,-12.2677 12.2674,-12.2677 6.7743,0 12.2677,5.49365 12.2677,12.2677 0,6.77405 -5.49339,12.2677 -12.2677,12.2677 -6.77405,0 -12.2674,-5.49365 -12.2674,-12.2677z"/>
     <path id="_34121424" class="fil6" d="M88.61 243.108c0,-6.7743 5.49339,-12.2677 12.2677,-12.2677 6.77405,0 12.2674,5.49339 12.2674,12.2677 0,6.77405 -5.49339,12.2674 -12.2674,12.2674 -6.7743,0 -12.2677,-5.49339 -12.2677,-12.2674z"/>
     <path id="_34124824" class="fil6" d="M60.1646 214.662c0,-6.77405 5.49339,-12.2677 12.2677,-12.2677 6.77405,0 12.2674,5.49365 12.2674,12.2677 0,6.77405 -5.49339,12.2677 -12.2674,12.2677 -6.7743,0 -12.2677,-5.49365 -12.2677,-12.2677z"/>
     <path id="_34122328" class="fil6" d="M31.7187 214.662c0,-6.77405 5.49339,-12.2677 12.2674,-12.2677 6.7743,0 12.2677,5.49365 12.2677,12.2677 0,6.77405 -5.49339,12.2677 -12.2677,12.2677 -6.77405,0 -12.2674,-5.49365 -12.2674,-12.2677z"/>
     <path id="_34278016" class="fil6" d="M202.394 271.554c0,-6.77405 5.49339,-12.2677 12.2674,-12.2677 6.7743,0 12.2677,5.49365 12.2677,12.2677 0,6.77405 -5.49339,12.2677 -12.2677,12.2677 -6.77405,0 -12.2674,-5.49365 -12.2674,-12.2677z"/>
     <path id="_32521352" class="fil6" d="M173.948 271.554c0,-6.77405 5.49365,-12.2674 12.2677,-12.2674 6.77405,0 12.2677,5.49339 12.2677,12.2674 0,6.7743 -5.49365,12.2677 -12.2677,12.2677 -6.77405,0 -12.2677,-5.49339 -12.2677,-12.2677z"/>
     <path id="_34277152" class="fil6" d="M230.84 271.554c0,-6.77405 5.49339,-12.2677 12.2677,-12.2677 6.77405,0 12.2674,5.49365 12.2674,12.2677 0,6.77405 -5.49339,12.2677 -12.2674,12.2677 -6.7743,0 -12.2677,-5.49365 -12.2677,-12.2677z"/>
     <path id="_16385816" class="fil6" d="M259.286 300c0,-6.7743 5.49339,-12.2677 12.2674,-12.2677 6.7743,0 12.2677,5.49339 12.2677,12.2677 0,6.77405 -5.49339,12.2674 -12.2677,12.2674 -6.77405,0 -12.2674,-5.49339 -12.2674,-12.2674z"/>
     <path id="_34280320" class="fil6" d="M287.732 300c0,-6.7743 5.49339,-12.2677 12.2677,-12.2677 6.77405,0 12.2674,5.49339 12.2674,12.2677 0,6.77405 -5.49339,12.2674 -12.2674,12.2674 -6.7743,0 -12.2677,-5.49339 -12.2677,-12.2674z"/>
    </g>
    <g>
     <path id="_32534512" class="fil6" d="M145.502 356.892c0,6.77405 5.49339,12.2677 12.2677,12.2677 6.77405,0 12.2674,-5.49365 12.2674,-12.2677 0,-6.77405 -5.49339,-12.2677 -12.2674,-12.2677 -6.7743,0 -12.2677,5.49365 -12.2677,12.2677z"/>
     <path id="_32897976" class="fil6" d="M117.056 356.892c0,6.77405 5.49339,12.2677 12.2674,12.2677 6.7743,0 12.2677,-5.49365 12.2677,-12.2677 0,-6.77405 -5.49339,-12.2677 -12.2677,-12.2677 -6.77405,0 -12.2674,5.49365 -12.2674,12.2677z"/>
     <path id="_33661176" class="fil6" d="M88.61 356.892c0,6.7743 5.49339,12.2677 12.2677,12.2677 6.77405,0 12.2674,-5.49339 12.2674,-12.2677 0,-6.77405 -5.49339,-12.2674 -12.2674,-12.2674 -6.7743,0 -12.2677,5.49339 -12.2677,12.2674z"/>
     <path id="_33572888" class="fil6" d="M60.1646 385.338c0,6.77405 5.49339,12.2677 12.2677,12.2677 6.77405,0 12.2674,-5.49365 12.2674,-12.2677 0,-6.77405 -5.49339,-12.2677 -12.2674,-12.2677 -6.7743,0 -12.2677,5.49365 -12.2677,12.2677z"/>
     <path id="_34013152" class="fil6" d="M31.7187 385.338c0,6.77405 5.49339,12.2677 12.2674,12.2677 6.7743,0 12.2677,-5.49365 12.2677,-12.2677 0,-6.77405 -5.49339,-12.2677 -12.2677,-12.2677 -6.77405,0 -12.2674,5.49365 -12.2674,12.2677z"/>
     <path id="_32406688" class="fil6" d="M202.394 328.446c0,6.77405 5.49339,12.2677 12.2674,12.2677 6.7743,0 12.2677,-5.49365 12.2677,-12.2677 0,-6.77405 -5.49339,-12.2677 -12.2677,-12.2677 -6.77405,0 -12.2674,5.49365 -12.2674,12.2677z"/>
     <path id="_34283928" class="fil6" d="M173.948 328.446c0,6.77405 5.49365,12.2674 12.2677,12.2674 6.77405,0 12.2677,-5.49339 12.2677,-12.2674 0,-6.7743 -5.49365,-12.2677 -12.2677,-12.2677 -6.77405,0 -12.2677,5.49339 -12.2677,12.2677z"/>
     <path id="_33659560" class="fil6" d="M230.84 328.446c0,6.77405 5.49339,12.2677 12.2677,12.2677 6.77405,0 12.2674,-5.49365 12.2674,-12.2677 0,-6.77405 -5.49339,-12.2677 -12.2674,-12.2677 -6.7743,0 -12.2677,5.49365 -12.2677,12.2677z"/>
     <path id="_32608248" class="fil6" d="M259.286 300c0,6.7743 5.49339,12.2677 12.2674,12.2677 6.7743,0 12.2677,-5.49339 12.2677,-12.2677 0,-6.77405 -5.49339,-12.2674 -12.2677,-12.2674 -6.77405,0 -12.2674,5.49339 -12.2674,12.2674z"/>
     <path id="_34287392" class="fil6" d="M287.732 300c0,6.7743 5.49339,12.2677 12.2677,12.2677 6.77405,0 12.2674,-5.49339 12.2674,-12.2677 0,-6.77405 -5.49339,-12.2674 -12.2674,-12.2674 -6.7743,0 -12.2677,5.49339 -12.2677,12.2674z"/>
    </g>
    <g>
     <path id="_34015488" class="fil6" d="M356.892 454.498c6.77405,0 12.2677,-5.49339 12.2677,-12.2677 0,-6.77405 -5.49365,-12.2674 -12.2677,-12.2674 -6.77405,0 -12.2677,5.49339 -12.2677,12.2674 0,6.7743 5.49365,12.2677 12.2677,12.2677z"/>
     <path id="_34336928" class="fil6" d="M356.892 482.944c6.77405,0 12.2677,-5.49339 12.2677,-12.2674 0,-6.7743 -5.49365,-12.2677 -12.2677,-12.2677 -6.77405,0 -12.2677,5.49339 -12.2677,12.2677 0,6.77405 5.49365,12.2674 12.2677,12.2674z"/>
     <path id="_34021464" class="fil6" d="M356.892 511.39c6.7743,0 12.2677,-5.49339 12.2677,-12.2677 0,-6.77405 -5.49339,-12.2674 -12.2677,-12.2674 -6.77405,0 -12.2674,5.49339 -12.2674,12.2674 0,6.7743 5.49339,12.2677 12.2674,12.2677z"/>
     <path id="_34341928" class="fil6" d="M385.338 539.835c6.77405,0 12.2677,-5.49339 12.2677,-12.2677 0,-6.77405 -5.49365,-12.2674 -12.2677,-12.2674 -6.77405,0 -12.2677,5.49339 -12.2677,12.2674 0,6.7743 5.49365,12.2677 12.2677,12.2677z"/>
     <path id="_34337936" class="fil6" d="M385.338 568.281c6.77405,0 12.2677,-5.49339 12.2677,-12.2674 0,-6.7743 -5.49365,-12.2677 -12.2677,-12.2677 -6.77405,0 -12.2677,5.49339 -12.2677,12.2677 0,6.77405 5.49365,12.2674 12.2677,12.2674z"/>
     <path id="_34339664" class="fil6" d="M328.446 397.606c6.77405,0 12.2677,-5.49339 12.2677,-12.2674 0,-6.7743 -5.49365,-12.2677 -12.2677,-12.2677 -6.77405,0 -12.2677,5.49339 -12.2677,12.2677 0,6.77405 5.49365,12.2674 12.2677,12.2674z"/>
     <path id="_34027168" class="fil6" d="M328.446 426.052c6.77405,0 12.2674,-5.49365 12.2674,-12.2677 0,-6.77405 -5.49339,-12.2677 -12.2674,-12.2677 -6.7743,0 -12.2677,5.49365 -12.2677,12.2677 0,6.77405 5.49339,12.2677 12.2677,12.2677z"/>
     <path id="_34016624" class="fil6" d="M328.446 369.16c6.77405,0 12.2677,-5.49339 12.2677,-12.2677 0,-6.77405 -5.49365,-12.2674 -12.2677,-12.2674 -6.77405,0 -12.2677,5.49339 -12.2677,12.2674 0,6.7743 5.49365,12.2677 12.2677,12.2677z"/>
     <path id="_34016192" class="fil6" d="M300 340.714c6.7743,0 12.2677,-5.49339 12.2677,-12.2674 0,-6.7743 -5.49339,-12.2677 -12.2677,-12.2677 -6.77405,0 -12.2674,5.49339 -12.2674,12.2677 0,6.77405 5.49339,12.2674 12.2674,12.2674z"/>
     <path id="_34017920" class="fil6" d="M300 312.268c6.7743,0 12.2677,-5.49339 12.2677,-12.2677 0,-6.77405 -5.49339,-12.2674 -12.2677,-12.2674 -6.77405,0 -12.2674,5.49339 -12.2674,12.2674 0,6.7743 5.49339,12.2677 12.2674,12.2677z"/>
    </g>
    <g>
     <path id="_34334768" class="fil6" d="M243.108 454.498c-6.77405,0 -12.2677,-5.49339 -12.2677,-12.2677 0,-6.77405 5.49365,-12.2674 12.2677,-12.2674 6.77405,0 12.2677,5.49339 12.2677,12.2674 0,6.7743 -5.49365,12.2677 -12.2677,12.2677z"/>
     <path id="_34015344" class="fil6" d="M243.108 482.944c-6.77405,0 -12.2677,-5.49339 -12.2677,-12.2674 0,-6.7743 5.49365,-12.2677 12.2677,-12.2677 6.77405,0 12.2677,5.49339 12.2677,12.2677 0,6.77405 -5.49365,12.2674 -12.2677,12.2674z"/>
     <path id="_32738760" class="fil6" d="M243.108 511.39c-6.7743,0 -12.2677,-5.49339 -12.2677,-12.2677 0,-6.77405 5.49339,-12.2674 12.2677,-12.2674 6.77405,0 12.2674,5.49339 12.2674,12.2674 0,6.7743 -5.49339,12.2677 -12.2674,12.2677z"/>
     <path id="_34485008" class="fil6" d="M214.662 539.835c-6.77405,0 -12.2677,-5.49339 -12.2677,-12.2677 0,-6.77405 5.49365,-12.2674 12.2677,-12.2674 6.77405,0 12.2677,5.49339 12.2677,12.2674 0,6.7743 -5.49365,12.2677 -12.2677,12.2677z"/>
     <path id="_33795120" class="fil6" d="M214.662 568.281c-6.77405,0 -12.2677,-5.49339 -12.2677,-12.2674 0,-6.7743 5.49365,-12.2677 12.2677,-12.2677 6.77405,0 12.2677,5.49339 12.2677,12.2677 0,6.77405 -5.49365,12.2674 -12.2677,12.2674z"/>
     <path id="_34005712" class="fil6" d="M271.554 397.606c-6.77405,0 -12.2677,-5.49339 -12.2677,-12.2674 0,-6.7743 5.49365,-12.2677 12.2677,-12.2677 6.77405,0 12.2677,5.49339 12.2677,12.2677 0,6.77405 -5.49365,12.2674 -12.2677,12.2674z"/>
     <path id="_34005472" class="fil6" d="M271.554 426.052c-6.77405,0 -12.2674,-5.49365 -12.2674,-12.2677 0,-6.77405 5.49339,-12.2677 12.2674,-12.2677 6.7743,0 12.2677,5.49365 12.2677,12.2677 0,6.77405 -5.49339,12.2677 -12.2677,12.2677z"/>
     <path id="_32964376" class="fil6" d="M271.554 369.16c-6.77405,0 -12.2677,-5.49339 -12.2677,-12.2677 0,-6.77405 5.49365,-12.2674 12.2677,-12.2674 6.77405,0 12.2677,5.49339 12.2677,12.2674 0,6.7743 -5.49365,12.2677 -12.2677,12.2677z"/>
     <path id="_32365224" class="fil6" d="M300 340.714c-6.7743,0 -12.2677,-5.49339 -12.2677,-12.2674 0,-6.7743 5.49339,-12.2677 12.2677,-12.2677 6.77405,0 12.2674,5.49339 12.2674,12.2677 0,6.77405 -5.49339,12.2674 -12.2674,12.2674z"/>
     <path id="_32391576" class="fil6" d="M300 312.268c-6.7743,0 -12.2677,-5.49339 -12.2677,-12.2677 0,-6.77405 5.49339,-12.2674 12.2677,-12.2674 6.77405,0 12.2674,5.49339 12.2674,12.2674 0,6.7743 -5.49339,12.2677 -12.2674,12.2677z"/>
    </g>
    <g>
     <path id="_33286048" class="fil6" d="M356.892 145.502c6.77405,0 12.2677,5.49339 12.2677,12.2677 0,6.77405 -5.49365,12.2674 -12.2677,12.2674 -6.77405,0 -12.2677,-5.49339 -12.2677,-12.2674 0,-6.7743 5.49365,-12.2677 12.2677,-12.2677z"/>
     <path id="_32389216" class="fil6" d="M356.892 117.056c6.77405,0 12.2677,5.49339 12.2677,12.2674 0,6.7743 -5.49365,12.2677 -12.2677,12.2677 -6.77405,0 -12.2677,-5.49339 -12.2677,-12.2677 0,-6.77405 5.49365,-12.2674 12.2677,-12.2674z"/>
     <path id="_33094280" class="fil6" d="M356.892 88.61c6.7743,0 12.2677,5.49339 12.2677,12.2677 0,6.77405 -5.49339,12.2674 -12.2677,12.2674 -6.77405,0 -12.2674,-5.49339 -12.2674,-12.2674 0,-6.7743 5.49339,-12.2677 12.2674,-12.2677z"/>
     <path id="_32364968" class="fil6" d="M385.338 60.1646c6.77405,0 12.2677,5.49339 12.2677,12.2677 0,6.77405 -5.49365,12.2674 -12.2677,12.2674 -6.77405,0 -12.2677,-5.49339 -12.2677,-12.2674 0,-6.7743 5.49365,-12.2677 12.2677,-12.2677z"/>
     <path id="_32812000" class="fil6" d="M385.338 31.7187c6.77405,0 12.2677,5.49339 12.2677,12.2674 0,6.7743 -5.49365,12.2677 -12.2677,12.2677 -6.77405,0 -12.2677,-5.49339 -12.2677,-12.2677 0,-6.77405 5.49365,-12.2674 12.2677,-12.2674z"/>
     <path id="_32303248" class="fil6" d="M328.446 202.394c6.77405,0 12.2677,5.49339 12.2677,12.2674 0,6.7743 -5.49365,12.2677 -12.2677,12.2677 -6.77405,0 -12.2677,-5.49339 -12.2677,-12.2677 0,-6.77405 5.49365,-12.2674 12.2677,-12.2674z"/>
     <path id="_34272440" class="fil6" d="M328.446 173.948c6.77405,0 12.2674,5.49365 12.2674,12.2677 0,6.77405 -5.49339,12.2677 -12.2674,12.2677 -6.7743,0 -12.2677,-5.49365 -12.2677,-12.2677 0,-6.77405 5.49339,-12.2677 12.2677,-12.2677z"/>
     <path id="_32816384" class="fil6" d="M328.446 230.84c6.77405,0 12.2677,5.49339 12.2677,12.2677 0,6.77405 -5.49365,12.2674 -12.2677,12.2674 -6.77405,0 -12.2677,-5.49339 -12.2677,-12.2674 0,-6.7743 5.49365,-12.2677 12.2677,-12.2677z"/>
     <path id="_32532920" class="fil6" d="M300 259.286c6.7743,0 12.2677,5.49339 12.2677,12.2674 0,6.7743 -5.49339,12.2677 -12.2677,12.2677 -6.77405,0 -12.2674,-5.49339 -12.2674,-12.2677 0,-6.77405 5.49339,-12.2674 12.2674,-12.2674z"/>
     <path id="_34009120" class="fil6" d="M300 287.732c6.7743,0 12.2677,5.49339 12.2677,12.2677 0,6.77405 -5.49339,12.2674 -12.2677,12.2674 -6.77405,0 -12.2674,-5.49339 -12.2674,-12.2674 0,-6.7743 5.49339,-12.2677 12.2674,-12.2677z"/>
    </g>
    <g>
     <path id="_33664336" class="fil6" d="M243.108 145.502c-6.77405,0 -12.2677,5.49339 -12.2677,12.2677 0,6.77405 5.49365,12.2674 12.2677,12.2674 6.77405,0 12.2677,-5.49339 12.2677,-12.2674 0,-6.7743 -5.49365,-12.2677 -12.2677,-12.2677z"/>
     <path id="_33672392" class="fil6" d="M243.108 117.056c-6.77405,0 -12.2677,5.49339 -12.2677,12.2674 0,6.7743 5.49365,12.2677 12.2677,12.2677 6.77405,0 12.2677,-5.49339 12.2677,-12.2677 0,-6.77405 -5.49365,-12.2674 -12.2677,-12.2674z"/>
     <path id="_34284792" class="fil6" d="M243.108 88.61c-6.7743,0 -12.2677,5.49339 -12.2677,12.2677 0,6.77405 5.49339,12.2674 12.2677,12.2674 6.77405,0 12.2674,-5.49339 12.2674,-12.2674 0,-6.7743 -5.49339,-12.2677 -12.2674,-12.2677z"/>
     <path id="_32687800" class="fil6" d="M214.662 60.1646c-6.77405,0 -12.2677,5.49339 -12.2677,12.2677 0,6.77405 5.49365,12.2674 12.2677,12.2674 6.77405,0 12.2677,-5.49339 12.2677,-12.2674 0,-6.7743 -5.49365,-12.2677 -12.2677,-12.2677z"/>
     <path id="_33938496" class="fil6" d="M214.662 31.7187c-6.77405,0 -12.2677,5.49339 -12.2677,12.2674 0,6.7743 5.49365,12.2677 12.2677,12.2677 6.77405,0 12.2677,-5.49339 12.2677,-12.2677 0,-6.77405 -5.49365,-12.2674 -12.2677,-12.2674z"/>
     <path id="_32889416" class="fil6" d="M271.554 202.394c-6.77405,0 -12.2677,5.49339 -12.2677,12.2674 0,6.7743 5.49365,12.2677 12.2677,12.2677 6.77405,0 12.2677,-5.49339 12.2677,-12.2677 0,-6.77405 -5.49365,-12.2674 -12.2677,-12.2674z"/>
     <path id="_33938544" class="fil6" d="M271.554 173.948c-6.77405,0 -12.2674,5.49365 -12.2674,12.2677 0,6.77405 5.49339,12.2677 12.2674,12.2677 6.7743,0 12.2677,-5.49365 12.2677,-12.2677 0,-6.77405 -5.49339,-12.2677 -12.2677,-12.2677z"/>
     <path id="_33225432" class="fil6" d="M271.554 230.84c-6.77405,0 -12.2677,5.49339 -12.2677,12.2677 0,6.77405 5.49365,12.2674 12.2677,12.2674 6.77405,0 12.2677,-5.49339 12.2677,-12.2674 0,-6.7743 -5.49365,-12.2677 -12.2677,-12.2677z"/>
     <path id="_34276592" class="fil6" d="M300 259.286c-6.7743,0 -12.2677,5.49339 -12.2677,12.2674 0,6.7743 5.49339,12.2677 12.2677,12.2677 6.77405,0 12.2674,-5.49339 12.2674,-12.2677 0,-6.77405 -5.49339,-12.2674 -12.2674,-12.2674z"/>
     <path id="_34001480" class="fil6" d="M300 287.732c-6.7743,0 -12.2677,5.49339 -12.2677,12.2677 0,6.77405 5.49339,12.2674 12.2677,12.2674 6.77405,0 12.2674,-5.49339 12.2674,-12.2674 0,-6.7743 -5.49339,-12.2677 -12.2674,-12.2677z"/>
    </g>
   </g>
   <g>
    <path id="_32527840" class="fil6" d="M454.498 243.108c0,-6.77405 -5.49339,-12.2677 -12.2677,-12.2677 -6.77405,0 -12.2674,5.49365 -12.2674,12.2677 0,6.77405 5.49339,12.2677 12.2674,12.2677 6.7743,0 12.2677,-5.49365 12.2677,-12.2677z"/>
    <path id="_32422048" class="fil6" d="M482.944 243.108c0,-6.77405 -5.49339,-12.2677 -12.2674,-12.2677 -6.7743,0 -12.2677,5.49365 -12.2677,12.2677 0,6.77405 5.49339,12.2677 12.2677,12.2677 6.77405,0 12.2674,-5.49365 12.2674,-12.2677z"/>
    <path id="_25689120" class="fil6" d="M511.39 243.108c0,-6.7743 -5.49339,-12.2677 -12.2677,-12.2677 -6.77405,0 -12.2674,5.49339 -12.2674,12.2677 0,6.77405 5.49339,12.2674 12.2674,12.2674 6.7743,0 12.2677,-5.49339 12.2677,-12.2674z"/>
    <path id="_32355808" class="fil6" d="M539.835 214.662c0,-6.77405 -5.49339,-12.2677 -12.2677,-12.2677 -6.77405,0 -12.2674,5.49365 -12.2674,12.2677 0,6.77405 5.49339,12.2677 12.2674,12.2677 6.7743,0 12.2677,-5.49365 12.2677,-12.2677z"/>
    <path id="_32364688" class="fil6" d="M568.281 214.662c0,-6.77405 -5.49339,-12.2677 -12.2674,-12.2677 -6.7743,0 -12.2677,5.49365 -12.2677,12.2677 0,6.77405 5.49339,12.2677 12.2677,12.2677 6.77405,0 12.2674,-5.49365 12.2674,-12.2677z"/>
    <path id="_34283640" class="fil6" d="M397.606 271.554c0,-6.77405 -5.49339,-12.2677 -12.2674,-12.2677 -6.7743,0 -12.2677,5.49365 -12.2677,12.2677 0,6.77405 5.49339,12.2677 12.2677,12.2677 6.77405,0 12.2674,-5.49365 12.2674,-12.2677z"/>
    <path id="_32647624" class="fil6" d="M426.052 271.554c0,-6.77405 -5.49365,-12.2674 -12.2677,-12.2674 -6.77405,0 -12.2677,5.49339 -12.2677,12.2674 0,6.7743 5.49365,12.2677 12.2677,12.2677 6.77405,0 12.2677,-5.49339 12.2677,-12.2677z"/>
    <path id="_32593496" class="fil6" d="M369.16 271.554c0,-6.77405 -5.49339,-12.2677 -12.2677,-12.2677 -6.77405,0 -12.2674,5.49365 -12.2674,12.2677 0,6.77405 5.49339,12.2677 12.2674,12.2677 6.7743,0 12.2677,-5.49365 12.2677,-12.2677z"/>
    <path id="_33614616" class="fil6" d="M340.714 300c0,-6.7743 -5.49339,-12.2677 -12.2674,-12.2677 -6.7743,0 -12.2677,5.49339 -12.2677,12.2677 0,6.77405 5.49339,12.2674 12.2677,12.2674 6.77405,0 12.2674,-5.49339 12.2674,-12.2674z"/>
    <path id="_32528248" class="fil6" d="M312.268 300c0,-6.7743 -5.49339,-12.2677 -12.2677,-12.2677 -6.77405,0 -12.2674,5.49339 -12.2674,12.2677 0,6.77405 5.49339,12.2674 12.2674,12.2674 6.7743,0 12.2677,-5.49339 12.2677,-12.2674z"/>
   </g>
  </g>
  <polygon class="fil4 str1" points="300,300 600.002,-0.000253093 600.002,300.001 "/>
  <path class="fil5" d="M148.439 54.657l-2.1599 0c-0.154387,1.07995 -0.514286,4.11429 -1.28571,4.62857 -0.41153,0.360152 -4.42306,0.360152 -5.19449,0.360152l-7.97143 0c1.95439,-1.64587 6.63434,-5.55439 7.40577,-6.12005 5.70852,-4.26867 9.20577,-6.89148 9.20577,-11.8286 0,-6.06867 -5.50276,-9.72005 -12.2915,-9.72005 -5.81128,0 -10.8,3.29148 -10.8,8.1772 0,2.72556 2.21153,3.49699 3.39424,3.49699 1.59449,0 3.44587,-1.07995 3.44587,-3.44561 0,-2.1599 -1.59424,-3.2401 -3.18872,-3.44561 2.05714,-2.36592 4.78296,-2.57143 5.86291,-2.57143 4.73158,0 6.99424,3.85714 6.99424,7.5599 0,4.01153 -2.72556,7.71429 -4.83408,9.92582l-11.1602 11.6742c-0.514286,0.462908 -0.514286,0.565664 -0.514286,1.49148l0 0.874185 21.6 0 1.49148 -11.0571z"/>
  <path class="fil5" d="M51.9424 139.317c5.76015,0 5.76015,5.34862 5.76015,7.81704 0,2.31429 0,7.76592 -5.55439,7.76592 -1.07995,0 -4.47419,-0.154387 -6.94286,-1.90301 2.21153,-0.462908 2.98296,-2.05714 2.98296,-3.6 0,-2.10852 -1.49148,-3.6 -3.6,-3.6 -2.16015,0 -3.65163,1.49148 -3.65163,3.65138 0,4.73158 5.14286,7.51713 11.4687,7.51713 8.48572,0 12.5486,-4.68856 12.5486,-9.83141 0,-2.5198 -1.28571,-7.40551 -9.25715,-8.79424 4.52556,-1.38847 7.66291,-4.57719 7.66291,-8.63985 0,-3.85714 -3.70301,-7.09725 -10.8516,-7.09725 -5.7599,0 -9.97694,3.03434 -9.97694,7.2 0,2.57143 2.00551,3.39424 3.34286,3.39424 1.49123,0 3.29123,-0.977194 3.29123,-3.34286 0,-1.18271 -0.514286,-2.93133 -2.93133,-3.29148 2.1599,-2.10852 5.65714,-2.10852 5.96567,-2.10852 4.57719,0 4.57719,3.54862 4.57719,5.09148 0,1.54286 -0.205765,3.90852 -1.85138,6.01704 -1.33709,1.74862 -2.67444,1.85163 -4.62857,1.95439 -0.617295,0.051378 -1.64587,0.102756 -1.85138,0.205765 -0.308774,0.154134 -0.308774,0.514286 -0.308774,0.720051 0,0.874185 0.308774,0.874185 1.33735,0.874185l2.46842 0z"/>
 </g>
</svg>
